{
    "asset" : {
        "generator" : "Khronos glTF Blender I/O v0.9.36",
        "version" : "2.0"
    },
    "scene" : 0,
    "scenes" : [
        {
            "name" : "Scene",
            "nodes" : [
                0,
                1,
                2,
                3
            ]
        }
    ],
    "nodes" : [
        {
            "mesh" : 0,
            "name" : "player",
            "translation" : [
                0.10616511851549149,
                -0.0009349735337309539,
                -0.00880909152328968
            ]
        },
        {
            "mesh" : 1,
            "name" : "flame",
            "translation" : [
                0.10616511851549149,
                -0.0009349735337309539,
                -0.00880909152328968
            ]
        },
        {
            "mesh" : 2,
            "name" : "ufo",
            "translation" : [
                -0.08520855009555817,
                -0.000861484557390213,
                0
            ]
        },
        {
            "mesh" : 3,
            "name" : "asteroid"
        }
    ],
    "materials" : [
        {
            "doubleSided" : true,
            "emissiveFactor" : [
                0,
                0,
                0
            ],
            "name" : "black",
            "pbrMetallicRoughness" : {}
        },
        {
            "alphaMode" : "BLEND",
            "doubleSided" : true,
            "emissiveFactor" : [
                0.2581830322742462,
                0,
                0.0006070598028600216
            ],
            "name" : "ufo-outline",
            "pbrMetallicRoughness" : {}
        }
    ],
    "meshes" : [
        {
            "name" : "Cube.003",
            "primitives" : [
                {
                    "attributes" : {
                        "POSITION" : 0,
                        "NORMAL" : 1,
                        "TEXCOORD_0" : 2
                    },
                    "indices" : 3,
                    "material" : 0
                }
            ]
        },
        {
            "name" : "Cube.004",
            "primitives" : [
                {
                    "attributes" : {
                        "POSITION" : 4,
                        "NORMAL" : 5,
                        "TEXCOORD_0" : 6
                    },
                    "indices" : 7,
                    "material" : 0
                }
            ]
        },
        {
            "name" : "Circle.003",
            "primitives" : [
                {
                    "attributes" : {
                        "POSITION" : 8,
                        "NORMAL" : 9,
                        "TEXCOORD_0" : 10,
                        "JOINTS_0" : 11,
                        "WEIGHTS_0" : 12
                    },
                    "indices" : 13,
                    "material" : 0
                },
                {
                    "attributes" : {
                        "POSITION" : 14,
                        "NORMAL" : 15,
                        "TEXCOORD_0" : 16,
                        "JOINTS_0" : 17,
                        "WEIGHTS_0" : 18
                    },
                    "indices" : 19,
                    "material" : 1
                }
            ]
        },
        {
            "name" : "Cube.005",
            "primitives" : [
                {
                    "attributes" : {
                        "POSITION" : 20,
                        "NORMAL" : 21,
                        "TEXCOORD_0" : 22
                    },
                    "indices" : 23,
                    "material" : 0
                }
            ]
        }
    ],
    "accessors" : [
        {
            "bufferView" : 0,
            "componentType" : 5126,
            "count" : 40,
            "max" : [
                0.018063755705952644,
                0.011640717275440693,
                0.034904152154922485
            ],
            "min" : [
                -0.018059229478240013,
                -0.011640717275440693,
                -0.01592399552464485
            ],
            "type" : "VEC3"
        },
        {
            "bufferView" : 1,
            "componentType" : 5126,
            "count" : 40,
            "type" : "VEC3"
        },
        {
            "bufferView" : 2,
            "componentType" : 5126,
            "count" : 40,
            "type" : "VEC2"
        },
        {
            "bufferView" : 3,
            "componentType" : 5123,
            "count" : 66,
            "type" : "SCALAR"
        },
        {
            "bufferView" : 4,
            "componentType" : 5126,
            "count" : 16,
            "max" : [
                0.006444692146033049,
                0.006442433688789606,
                -0.0076169781386852264
            ],
            "min" : [
                -0.006440177094191313,
                -0.006442436017096043,
                -0.029320120811462402
            ],
            "type" : "VEC3"
        },
        {
            "bufferView" : 5,
            "componentType" : 5126,
            "count" : 16,
            "type" : "VEC3"
        },
        {
            "bufferView" : 6,
            "componentType" : 5126,
            "count" : 16,
            "type" : "VEC2"
        },
        {
            "bufferView" : 7,
            "componentType" : 5123,
            "count" : 18,
            "type" : "SCALAR"
        },
        {
            "bufferView" : 8,
            "componentType" : 5126,
            "count" : 224,
            "max" : [
                0.02506670169532299,
                0.013382581993937492,
                0.02506670169532299
            ],
            "min" : [
                -0.02506670169532299,
                -0.005992770195007324,
                -0.02506670169532299
            ],
            "type" : "VEC3"
        },
        {
            "bufferView" : 9,
            "componentType" : 5126,
            "count" : 224,
            "type" : "VEC3"
        },
        {
            "bufferView" : 10,
            "componentType" : 5126,
            "count" : 224,
            "type" : "VEC2"
        },
        {
            "bufferView" : 11,
            "componentType" : 5123,
            "count" : 224,
            "type" : "VEC4"
        },
        {
            "bufferView" : 12,
            "componentType" : 5126,
            "count" : 224,
            "type" : "VEC4"
        },
        {
            "bufferView" : 13,
            "componentType" : 5123,
            "count" : 372,
            "type" : "SCALAR"
        },
        {
            "bufferView" : 14,
            "componentType" : 5126,
            "count" : 32,
            "max" : [
                0.02506670169532299,
                0.00803917832672596,
                0.02506670169532299
            ],
            "min" : [
                -0.02506670169532299,
                0.0007954146713018417,
                -0.02506670169532299
            ],
            "type" : "VEC3"
        },
        {
            "bufferView" : 15,
            "componentType" : 5126,
            "count" : 32,
            "type" : "VEC3"
        },
        {
            "bufferView" : 16,
            "componentType" : 5126,
            "count" : 32,
            "type" : "VEC2"
        },
        {
            "bufferView" : 17,
            "componentType" : 5123,
            "count" : 32,
            "type" : "VEC4"
        },
        {
            "bufferView" : 18,
            "componentType" : 5126,
            "count" : 32,
            "type" : "VEC4"
        },
        {
            "bufferView" : 19,
            "componentType" : 5123,
            "count" : 84,
            "type" : "SCALAR"
        },
        {
            "bufferView" : 20,
            "componentType" : 5126,
            "count" : 216,
            "max" : [
                0.05173003673553467,
                0.03693665191531181,
                0.04030405730009079
            ],
            "min" : [
                -0.03652701526880264,
                -0.03378317877650261,
                -0.0400361530482769
            ],
            "type" : "VEC3"
        },
        {
            "bufferView" : 21,
            "componentType" : 5126,
            "count" : 216,
            "type" : "VEC3"
        },
        {
            "bufferView" : 22,
            "componentType" : 5126,
            "count" : 216,
            "type" : "VEC2"
        },
        {
            "bufferView" : 23,
            "componentType" : 5123,
            "count" : 324,
            "type" : "SCALAR"
        }
    ],
    "bufferViews" : [
        {
            "buffer" : 0,
            "byteLength" : 480,
            "byteOffset" : 0
        },
        {
            "buffer" : 0,
            "byteLength" : 480,
            "byteOffset" : 480
        },
        {
            "buffer" : 0,
            "byteLength" : 320,
            "byteOffset" : 960
        },
        {
            "buffer" : 0,
            "byteLength" : 132,
            "byteOffset" : 1280
        },
        {
            "buffer" : 0,
            "byteLength" : 192,
            "byteOffset" : 1412
        },
        {
            "buffer" : 0,
            "byteLength" : 192,
            "byteOffset" : 1604
        },
        {
            "buffer" : 0,
            "byteLength" : 128,
            "byteOffset" : 1796
        },
        {
            "buffer" : 0,
            "byteLength" : 36,
            "byteOffset" : 1924
        },
        {
            "buffer" : 0,
            "byteLength" : 2688,
            "byteOffset" : 1960
        },
        {
            "buffer" : 0,
            "byteLength" : 2688,
            "byteOffset" : 4648
        },
        {
            "buffer" : 0,
            "byteLength" : 1792,
            "byteOffset" : 7336
        },
        {
            "buffer" : 0,
            "byteLength" : 1792,
            "byteOffset" : 9128
        },
        {
            "buffer" : 0,
            "byteLength" : 3584,
            "byteOffset" : 10920
        },
        {
            "buffer" : 0,
            "byteLength" : 744,
            "byteOffset" : 14504
        },
        {
            "buffer" : 0,
            "byteLength" : 384,
            "byteOffset" : 15248
        },
        {
            "buffer" : 0,
            "byteLength" : 384,
            "byteOffset" : 15632
        },
        {
            "buffer" : 0,
            "byteLength" : 256,
            "byteOffset" : 16016
        },
        {
            "buffer" : 0,
            "byteLength" : 256,
            "byteOffset" : 16272
        },
        {
            "buffer" : 0,
            "byteLength" : 512,
            "byteOffset" : 16528
        },
        {
            "buffer" : 0,
            "byteLength" : 168,
            "byteOffset" : 17040
        },
        {
            "buffer" : 0,
            "byteLength" : 2592,
            "byteOffset" : 17208
        },
        {
            "buffer" : 0,
            "byteLength" : 2592,
            "byteOffset" : 19800
        },
        {
            "buffer" : 0,
            "byteLength" : 1728,
            "byteOffset" : 22392
        },
        {
            "buffer" : 0,
            "byteLength" : 648,
            "byteOffset" : 24120
        }
    ],
    "buffers" : [
        {
            "byteLength" : 24768,
            "uri" : "data:application/octet-stream;base64,"
        }
    ]
}
